<svg width="9" height="8" viewBox="0 0 9 8" fill="none" xmlns="http://www.w3.org/2000/svg">
<path fill-rule="evenodd" clip-rule="evenodd" d="M3.95725 7.17547C3.95722 7.47567 4.20055 7.719 4.50074 7.71894C4.80093 7.71894 5.0443 7.47555 5.04434 7.17535L5.04463 4.45715L7.76127 4.45686C8.06147 4.45683 8.30486 4.21345 8.30493 3.91326C8.30493 3.61308 8.0616 3.36975 7.7614 3.36978L5.04475 3.37007L5.04504 0.652856C5.04507 0.352669 4.80174 0.109343 4.50156 0.109375C4.20136 0.109407 3.95799 0.352785 3.95795 0.652976L3.95766 3.37019L1.23891 3.37048C0.938721 3.37051 0.695345 3.61389 0.695313 3.91408C0.69528 4.21427 0.938607 4.45759 1.23879 4.45756L3.95755 4.45727L3.95725 7.17547Z" fill="#1E1F21"/>
</svg>
