<svg width="54" height="59" viewBox="0 0 54 59" fill="none" xmlns="http://www.w3.org/2000/svg">
<g clip-path="url(#clip0_338_56)">
<path fill-rule="evenodd" clip-rule="evenodd" d="M48.3438 29.1596C48.3458 33.4855 49.4203 36.9895 50.7448 36.9895C52.0698 36.9895 53.1453 33.4824 53.1474 29.1615C53.1454 24.8356 52.0724 21.3301 50.7464 21.3301C49.4203 21.3306 48.3413 24.8361 48.3438 29.1594V29.1596Z" fill="#1A237E"/>
<path fill-rule="evenodd" clip-rule="evenodd" d="M18.5583 3.33138C7.59908 7.88202 9.12891e-07 17.82 9.12891e-07 29.341C-0.00304168 40.8646 7.59972 50.8006 18.5635 55.3493C12.2821 49.9128 8.10938 40.2934 8.10938 29.341C8.10938 18.3889 12.2847 8.7706 18.5584 3.33008L18.5583 3.33138Z" fill="#1A237E"/>
<path fill-rule="evenodd" clip-rule="evenodd" d="M25.9867 0.477212C20.85 0.477212 16.6797 13.4561 16.6797 29.4518C16.6797 45.4566 20.8495 58.4277 25.9909 58.429C28.5289 58.4274 30.8326 55.2541 32.5111 50.1137C33.9314 53.571 35.72 55.6369 37.6611 55.6369C42.2897 55.6384 46.0442 43.9576 46.0407 29.5507C46.0443 15.1452 42.2923 3.4619 37.6651 3.4684C35.7381 3.4684 33.9628 5.50181 32.5465 8.90892C30.863 3.70271 28.5471 0.479029 25.9869 0.476562L25.9867 0.477212ZM44.7981 29.553C44.8017 37.6375 42.789 44.1961 40.3099 44.1961C37.8298 44.1961 35.8202 37.637 35.8202 29.5556C35.8202 21.4666 37.8293 14.91 40.3099 14.9074C42.7916 14.9094 44.8007 21.4656 44.7981 29.553ZM32.125 9.99131C30.3842 14.7716 29.2848 21.7613 29.2848 29.5517C29.2843 37.2741 30.3634 44.2117 32.0768 48.9876C31.2407 50.1209 30.3193 50.7497 29.3523 50.7497C25.5704 50.7466 22.5086 41.2139 22.5086 29.451C22.5086 17.6932 25.5704 8.15625 29.3472 8.15625C30.3371 8.15828 31.2772 8.81546 32.125 9.99092V9.99131Z" fill="#1A237E"/>
</g>
<defs>
<clipPath id="clip0_338_56">
<rect width="53.1489" height="57.9524" fill="white" transform="translate(0 0.476562)"/>
</clipPath>
</defs>
</svg>
